<?xml version="1.0" encoding="utf-8"?>
<!-- Generator: Adobe Illustrator 19.2.1, SVG Export Plug-In . SVG Version: 6.00 Build 0)  -->
<svg version="1.1" id="layer" xmlns="http://www.w3.org/2000/svg" xmlns:xlink="http://www.w3.org/1999/xlink" x="0px" y="0px"
	 viewBox="0 0 652 652" style="enable-background:new 0 0 652 652;" xml:space="preserve">
<style type="text/css">
	.st0{fill:#BF2F38;}
</style>
<path class="st0" d="M90.8,213c0-1.1,0.5-6.5,0.5-7.7c0-1.6-0.5-9.4-0.5-11c0-1.6,0-5.4,2.1-8.8c2.1-2.9,5.5-4.7,8.2-4.7h0.2
	c1.6,0.2,15.9,0.7,17.3,0.9c1.6,0.4,3,0.4,4.3,0.7c1.1,0.2,2.1,0.7,3.2,1.1c2.1,0.4,3.9,0.4,5.9,0.9c1.6,0.2,3.2,0.7,5,1.1
	c2.5,0.4,5,0.7,7.7,1.1c3.9,0.9,10.9,1.8,11.4,1.8c3.2,0,5.4-2.5,5.4-4c0-1.8-2.1-3.6-3.9-4.3c-1.4-0.4-2.5-0.7-3.6-0.9
	c-1.1-0.4-2.1-0.9-3-1.3c-0.7-0.2-1.6-0.4-2.3-0.7c-1.8-0.7-13-5.9-15.9-7.7c-0.9-0.4-5.7-3.8-6.8-4.5c-4.3-2.9-7.5-4.9-8.9-6.3
	c-2.7-2.5-10-11.9-10-12.1c-0.9-1.4-5.9-11.7-6.6-17.6c-0.2-2.2-0.2-4.5-0.5-6.8c0-0.4-0.2-4.5-0.2-4.5c0-2.7,0.7-7.7,2.5-11.5
	c0.5-1.1,0.9-2.2,1.6-3.4c0.9-2.2,1.6-4.7,2.7-7c1.8-3.6,3-4.7,5.9-7.7c1.4-1.3,2.3-2.7,3.4-3.8c5.7-5.6,14.8-9.4,24.8-11.2
	c5.9-1.1,6.1-1.1,12.5-1.1c2.1,0,11.8-0.7,14.1-0.7c1.1,0,21.4,0.7,21.8,0.9c0.5,0,25,1.1,29.3,6.8c2.3,3.1,2.3,4.7,2.3,16v13.9
	c0,4.3-0.5,6.3-1.1,7.7c-1.4,2.5-5,5.2-5.2,5.4c-1.1,0.7-6.6,2-7.7,2c-0.2,0-18.9-1.6-22.1-2.5c-2.7-0.7-5.5-0.4-8.4-0.9
	c-1.6-0.2-3.2-0.7-4.8-0.9c-0.9-0.2-1.8-0.2-2.5-0.2c-5.2,0-7.3,1.6-7.3,3.1c0,2,2.5,4.5,8.7,6.1c4.1,1.1,9.1,2.5,12.1,4
	c2.7,1.3,5,2.9,7.5,4.5c2.7,1.3,5.7,2.7,8.2,4.3c5.5,3.4,14.1,11.5,15.5,13.5c0.9,1.1,3.2,4.5,3.9,5.6c0.7,1.3,0.9,2.9,1.6,4.3
	c0.7,1.1,1.4,2.2,2.1,3.6c0.9,2,3.4,10.1,3.4,15.3c0,1.6-1.1,9.2-1.1,10.8c-0.5,2.7-0.2,5.6-0.9,8.3c-1.1,4.5-5,10.6-7.3,12.8
	c-1.1,1.1-2.5,2-3.6,3.1c-1.6,1.3-3.2,2.9-4.8,4.3c-1.1,0.7-2.3,1.3-3.4,2c-2.1,1.1-3.6,2.5-5.5,3.6c-5.4,3.4-9.3,4-13,4.9
	c-8,1.6-9.1,1.6-19.6,1.3c-1.8,0-10,0.2-11.8,0.2c-0.7,0-4.3-0.2-5-0.2h-2.3c-1.4,0-7.5-0.9-9.1-0.9c-2.1-0.2-4.3-0.2-6.6-0.4
	c-1.4-0.2-2.7-0.4-4.3-0.4c-4.8-0.7-22.5-0.7-27.1-2c-3.7-1-6.6-2.8-7.5-5.1C91.2,224.9,90.8,214.1,90.8,213z M230,223.6
	c0-4.3,0.7-5.9,3.2-12.1c1.4-3.1,2.7-8.8,5.9-22c0.5-2.5,1.1-4.7,2.1-7c1.4-4.5,3.2-8.6,4.3-13c1.6-6.3,2.3-13,4.1-19.3
	c1.6-4.9,3.6-9.9,5.4-14.8c0.5-1.6,1.1-3.4,1.6-5.2c0.5-2.7,1.1-5.4,1.8-8.1c0.7-2.2,6.8-18,7.3-19.3c0.9-2.5,1.4-5.2,2.1-7.9
	c0.9-2.5,1.8-5.2,2.7-7.9c1.4-3.6,2.5-7.2,6.1-9.7c4.8-3.1,8.7-3.1,12.5-3.1c2.3,0,13.9,0.4,16.4,0.4c3.2,0,11.6-0.2,14.6-0.4
	c0.5,0,5.9-0.4,6.4-0.4c2.1,0,12.5,0.9,14.8,0.9c1.1,0,6.4-0.2,7.5-0.2c3.2,0,9.3,0.9,11.4,2c1.8,1.1,5,4.5,6.4,6.8
	c0.9,1.8,3.6,9.9,4.1,12.8c0.2,1.3,0.7,2.9,1.1,4.3c0.7,2.7,1.1,5.4,1.8,7.9c0.9,3.1,3,9.9,4.8,14.6c2.5,6.5,2.7,7.4,3.9,15.5
	c0.7,5.9,1.4,7.9,4.3,18c0.9,3.6,1.8,7.4,3,11c0.7,2.5,1.4,4.7,2.1,6.7c0.9,2,1.8,4,2.3,6.1c0.7,2.2,1.8,5.4,2.5,7.7
	c0.7,2.5,1.1,5.2,1.8,7.9c0.5,2,1.4,4.3,1.8,6.3c0.2,0.7,1.6,4,1.8,4.7c0,0.4,2.5,9.4,2.5,9.7c0.2,1.1,0.5,2.2,0.5,3.4
	c0,7.9-3.9,11.9-10.7,13.3c-2.3,0.2-3,0.2-10.2,0.2c-2.1,0-12.1,0.7-14.3,0.7c-0.7,0-3-0.2-5-0.4c-2.3,0-4.3-0.2-5.2-0.2
	c-0.7,0-4.1,0.2-4.8,0.2c-8,0-8.9-1.6-11.8-7.9c-4.3-9.2-6.1-11.2-12.3-11.2c-1.1,0-7,0.9-8.4,0.9c-1.1,0.2-2.5,0.2-3.7,0.2
	c-2.3,0-12.7-0.9-15.2-0.9c-3.9,0-8.2,1.3-10.3,4.3c-0.7,1.1-3.4,7.4-4.1,8.8c-3.2,5.4-6.8,5.6-9.3,5.6c-1.8,0-10-0.4-11.8-0.4
	c-1.6,0-9.8,0.2-11.6,0.2c-0.9,0-5.7-0.2-6.6-0.2c-1.1,0-6.8,0.4-8,0.4C239.8,233,230,232.8,230,223.6z M305.8,158.2
	c0,3.1,1.6,4.7,4.1,5.4c1.4,0.2,1.8,0.2,7.5,0.2c0.7,0,4.6,0.2,5.5,0.2c4.3,0,6.1-1.6,6.1-4.7c0-0.9-0.2-1.8-0.5-2.7
	c-0.5-2-0.9-4-1.4-5.9c-0.5-2.5-0.9-4.7-1.4-7.2c-0.5-1.6-1.1-2.9-1.6-4.5c-0.9-2.5-1.4-4.7-2.3-7.2c-0.5-1.6-1.1-3.8-4.3-3.8
	c-2.3,0-3.6,1.1-5.4,5.9c-1.1,2.7-1.4,3.4-3,10.6C308.7,146.5,305.8,155.9,305.8,158.2z M411.1,186c0.7,1.8,1.4,3.6,2.1,5.2
	c3.4,7.2,13.2,18.9,15.5,20.9c1.1,0.9,8.2,6.1,9.8,7.2c5.5,4,10.2,7.9,20.7,10.6c5.7,1.6,16.4,3.4,22.1,3.4h6.1h2.3
	c0.9,0.2,1.8,0.2,2.1,0.2c0.7,0,2.5-0.2,4.1-0.2c1.8-0.2,3.4-0.2,4.1-0.2c1.1,0,3.9,0,6.4,0.2c2.7,0,5.5,0.2,6.4,0.2
	c2.3,0,11.6-0.7,13.6-0.7c1.1,0,4.3,0.2,7.5,0.2c3.2,0.2,6.4,0.4,7.3,0.4c4.8,0,9.3-0.9,12.3-6.1c2.3-4.3,2.3-9.4,2.3-12.1v-7.4
	c0-2,0.2-11,0.2-13c0-3.1-0.5-18-0.5-20.9c0-2.7,0.7-14.6,0.7-17.1c0-8.6-1.6-10.3-4.3-13.5c-2.3-2.2-3.6-3.8-12.1-3.8
	c-2.1,0-11.4,0.4-13.2,0.4c-0.2,0-5.7-0.2-7-0.2c-0.5,0-4.6-0.4-4.6-0.4c-1.4,0-2.7,0.2-4.1,0.2c-2.1,0-11.8-0.9-13.9-0.9
	c-2.5,0-9.3,0-9.3,9.9c0,1.3,0.2,7.7,0.2,9c0,1.3-0.7,7.7-0.7,9c0,5.6,6.4,6.1,7.3,6.1c0.7,0,3.6-0.2,4.3-0.2c3.2,0,4.1,2.2,4.1,3.4
	c0,3.8-4.5,4.9-8,4.9c-7,0-14.1-0.9-20.9-9.2c-4.3-5.6-6.1-9-6.1-15.3c0-16,8.4-20.7,14.1-23.8c5-2.9,7.7-4.5,14.1-4.5
	c2.1,0,10.9,0.7,12.7,0.7c1.4,0,8.4-0.2,9.8-0.2c3.2,0,6.4,0.4,9.8,0.7c2.5,0.2,7.7,0.2,10.5,0.2c11.8,0,11.8-7.9,11.8-11.2
	c0-2.2-0.7-11.9-0.7-13.9c0-1.3,0.5-7.2,0.5-8.6c0-11-0.5-11.5-1.8-14.8c-2.6-6.4-6.4-9.4-20.5-7h-15.7c-2.3,0-12.5-0.2-14.6-0.2
	c-5.2,0-20.2,0.7-26.4,1.8c-5,0.7-19.3,4.5-27.1,7.9c-5,2-8.9,4.5-13.2,8.8c-2.1,2-3.9,4-5.7,6.1c-2.1,2.2-4.3,4.3-6.4,6.5
	c-7.5,8.1-9.8,15.8-11.1,21.4c-0.7,2.9-1.4,5.9-1.8,9c-0.2,3.1-0.5,6.3-0.7,9.7c-0.5,3.1-1.1,6.3-1.4,9.4v2.5
	c0,7.2,0.9,16.4,4.1,23.8C409.1,182.2,410.2,184.2,411.1,186z M418.8,246.1c-0.7-0.9-3.4-2.9-4.3-3.4c-2.1-0.9-7.3-1.1-7.8-1.1
	c-2.7,0-5.5,0.4-8.2,0.7h-13h-1.1c-0.5,0-0.9-0.2-1.6-0.2h-7.3c-2.1,0-4.1-0.4-6.2-0.4c-2.1,0-6.6,0.9-7.6,1.3
	c-4.6,1.6-4.8,6.1-4.8,7.9c0,1.4,0.9,7,0.9,8.1c0,0.9-0.2,5-0.2,5.9c0,1.1,0.2,6.1,0.2,7c0,4.7-0.9,9.7-0.9,14.5
	c0,2.5,1.6,13.1,1.6,15.4c0,0.9-0.7,5.6-0.7,6.6c0,2.5,0.7,5,0.7,7.2c0,1.6-0.9,7.9-0.9,9.3c0,1.3,0.2,7.7,0,9
	c0,6.6-0.9,7.5-5.5,10.6c-3.4,2.7-3.7,2.9-6,3.4c-1.1,0.4-2.3,0.4-3.4,0.4c-0.7,0-3.9-0.4-4.3-0.4c-1.6-0.2-3.2,0-4.8-0.2
	c-1.1-0.2-6-2-7.8-3.4c-0.9-0.9-2.3-2.7-3.2-4.3c-2.1-3.4-2.1-5.9-2.1-8.6c0-2.3,0.2-11.5,0-13.6c0-0.2-0.5-5.4-0.5-5.6
	c0-4.1,1.1-8.1,1.4-12.2c0.2-1.4,0.2-2.7,0.2-4.1c0-1.6,0-8.1,0.2-9.3c0-1.3,0.7-6.6,0.7-7.7c0-2-0.9-11.3-0.9-13.3
	c0-1.1,0-2.3,0.2-3.4c0-1.1,0.9-6.3,0.9-7.2c0-12.4-8.7-12.9-14.2-12.9h-5c-1.1,0-6-0.2-6.9-0.2c-2.7,0-14.6,0.4-17.2,0.4
	c-1.4,0-7.3-0.4-8.7-0.4c-3.7,0-7.8,0-10.1,3.9c-0.9,2-1.8,4.5-1.8,6.8c0,0.9,0.5,5.4,0.5,6.5c0,2-0.7,11.8-0.7,13.8
	c0,2.9,0.7,15.4,0.7,17.9c0,2-0.5,10.8-0.5,12.4c0,0.9,0.2,4.3,0.2,5c0,1.8-0.2,3.9-0.2,5.6c0,1.8,0.5,10.2,0.5,11.8
	c0,2.3-0.5,11.8-0.5,13.8c0,1.8,0.2,10.2,0.2,11.8c0,2.9,0,3.2,0.2,4.3c0.2,1.3,3.4,10.8,3.7,11.3c0.9,1.8,2.3,3.6,3.4,5.6
	c0.7,1.1,1.1,2.3,1.8,3.4c3.4,6.8,11,12.4,13.5,14c1.6,0.9,9.4,5.4,10.8,6.3c4.1,2.9,4.6,3.4,6.4,4.1c1.8,0.9,13.5,4.5,18.3,4.5
	c0.9,0,4.3,0.4,5,0.4c1.1,0,6.2-0.4,7.3-0.4c1.1,0,4.3,0.2,7.6,0.4c3.2,0.2,6.4,0.4,7.3,0.4h2.7c1.8-0.2,5.5-0.7,5.5-0.7
	c1.1-0.2,2.5-0.2,3.7-0.2c1.4,0,6.9,0.2,7.8,0.2c4.3,0,16.5-1.6,24.5-6.1c1.4-0.9,2.7-2,4.1-2.9c1.1-0.7,2.3-1.3,3.2-2
	c4.6-2.9,8.2-7.5,9.4-9.5c1.4-2,2.5-4.5,3.7-6.8c1.4-2.3,3-4.5,4.1-6.8c0.7-1.6,1.1-3.4,1.6-5.2c0.7-1.8,1.4-3.4,2.1-5.2
	c2.7-7.5,3-20.6,3-21c0-1.1-0.2-5.9-0.2-6.8c0-5.6,0.5-11.1,0.5-16.5c0-3.6-0.2-7-0.5-10.6c-0.2-4.1-0.5-5.2-0.5-7
	c0-1.3,1.1-10.8,1.1-12c0.2-2.5,0.7-5,0.9-7.5c0.2-1.1,0.2-6.8,0.2-7.9c0-0.9-0.2-4.5-0.2-5.2c0-2.3,0.2-4.3,0.2-6.3
	C421.4,256.3,420.9,248.6,418.8,246.1z M555.8,365.9c0-6.8-2.3-9.5-4.1-11.5c-1.1-1.3-2.5-2.7-8.2-2.7c-4.3,0.2-6,0.2-10.3,0
	c-1.4,0-7.3,0.2-8.5,0.2c-4.6,0-7.8,0-9.8,0.4c-4.3,0.4-6.4,0.7-7.8,0.7c-5.3,0-14,0-14-7c0-5,6.9-5,8.9-5c1.6,0,8.7,0.4,10.3,0.4
	c0.9,0,21.3-0.4,21.7-0.4c0.5-0.2,3.2-0.4,3.7-0.4c0.9,0,4.6,0.2,5.5,0c3.2-0.4,6.9-1.3,6.9-9.5c0-2.3-0.9-12.2-0.9-14.2
	c0-1.1,0.2-6.1,0-7c-0.9-8.8-3.7-9.9-12.4-9.9c-1.8,0-9.8,0.7-11.4,0.7h-4.8c-0.9,0-4.6-0.2-5.3-0.2c-1.4,0-7.1,0.7-8.5,0.7
	c-11.4,0-16,0-16-6.5c0-5.2,5-5.2,8.7-5.2c1.1,0,6.4,0.4,7.6,0.4c1.6,0,8.2-0.7,9.8-0.7c1.6,0,9.4,0.9,11,0.9c1.4,0,7.6-0.2,8.7-0.2
	c1.1,0,5.3,0.2,6.2,0.2c3,0,4.8-0.7,6.4-3.9c1.8-3.2,1.8-6.5,1.8-8.4c0-2-0.9-10.8-0.9-12.7c0-2.7,0.2-5.6,0.2-8.4
	c0-2.3,0-10.6-5.5-13.6c-1.4-0.7-4.3-0.7-6.4-0.7c-0.7,0-4.1-0.2-4.8-0.2h-5.3c-0.9,0-5-0.2-6-0.2c-0.5,0-11.2,0.7-11.7,0.9
	c-2.3,0.2-2.5,0.2-3.2,0.2c-0.5,0-1.6-0.2-2.7-0.2c-1.1-0.2-2.3-0.2-2.7-0.2h-2.5c-1.1,0.2-2.1,0.2-2.5,0.2c-0.5,0-1.8-0.2-3.2-0.2
	c-1.4-0.2-2.7-0.2-3.2-0.2h-1.4c-0.7,0.2-1.4,0.2-1.6,0.2c-0.9,0-1.6-0.2-2.5-0.4c-1.6-0.2-3.2-0.2-4.6-0.2c-2.1,0-11.2,0.4-13,0.4
	c-3.9,0-10.1,0.2-14,0.2c-1.4,0-8-0.7-9.4-0.7c-7.8,0-14.6,2.7-14.6,15.1c0,2.3,0.2,4.5,0.5,6.8c0.2,3.6,0.5,7.5,0.5,11.1
	c0,2.3,0,4.5-0.2,6.6c-0.2,4.7-0.9,9.3-0.9,13.8c0,2.3,0.7,12.2,0.7,14.2c0,2.9,0,3.9,0.2,5.2c0,0.2,0.2,5,0.2,5
	c0,6.6,0,7.2,0.5,10.8c0.5,3.8,0.7,7.9,0.7,11.8c0,2.3-0.7,12-0.9,14c-0.2,3.9-0.5,21.7-0.7,25.3c0,1.6-0.7,8.4-0.7,9.9
	c0,4.7,0.2,11.1,11.2,11.1c1.4,0,3.9-0.2,7.8-0.4c6.4-0.7,10.1-0.7,14.9-0.2c3.2,0,6.4,0.2,7.3,0.2c13.7-0.7,19.4-1.1,28.8-0.2
	c3.9,0.2,7.8,0.4,9.2,0.4c3.2,0,8.2-0.2,12.4-0.7c4.3-0.4,7.3-0.7,8.7-0.7c2.3,0,12.6,0.7,14.6,0.7c9.6,0,11.9-3.9,11.9-16
	c0-2-0.5-10.6-0.5-12.4C555.6,372.2,555.8,367,555.8,365.9z M414.8,553.9c0.2,1.1,0.5,2.2,0.5,3.4c0,7.9-3.9,11.9-10.7,13.3
	c-2.3,0.2-3,0.2-10.3,0.2c-2.1,0-12.1,0.7-14.3,0.7c-0.7,0-3-0.2-5-0.4c-2.3,0-4.3-0.2-5.2-0.2c-0.7,0-4.1,0.2-4.8,0.2
	c-8,0-8.9-1.6-11.8-7.9c-4.3-9.2-6.1-11.2-12.3-11.2c-1.1,0-7,0.9-8.4,0.9c-1.1,0.2-2.5,0.2-3.6,0.2c-2.3,0-12.7-0.9-15.2-0.9
	c-3.9,0-8.2,1.3-10.2,4.3c-0.7,1.1-3.4,7.4-4.1,8.8c-3.2,5.4-6.8,5.6-9.3,5.6c-1.8,0-10-0.4-11.8-0.4c-1.6,0-9.8,0.2-11.6,0.2
	c-0.9,0-5.7-0.2-6.6-0.2c-1.1,0-6.8,0.4-8,0.4c-0.9,0-4.1-0.1-6.9-1.6c-2.1,1.2-4.7,1.8-7.4,1.8c-1.6,0-8.9-0.9-10.5-0.9
	c-1.1,0-7.7,0.2-12.5,0.7c-3.2,0.4-3.4,0.4-4.8,0.4c-12.5,0-13.6-1.3-16.4-4.5c-0.9-1.1-2.3-2.2-3.2-3.4c-3-2.7-6.6-7-8.7-9.9
	c-2.3-3.1-4.1-6.5-6.4-9.7c-1.4-1.8-8.4-10.1-9.8-12.4c-0.7-0.9-1.1-2-1.8-2.9c-0.9-1.3-2.1-2.7-3-3.8c-0.9-1.3-1.4-2.5-2.5-3.8
	c-0.9-1.3-2.3-2.7-3.9-2.7c-4.1,0-4.1,4.7-4.1,7.7c0,0.9,0.2,6.3,0.2,7.7c0,2.5-0.2,14.4-0.2,17.1v2.2c0,1.1,0.9,7,0.9,8.3
	c0,0.2-0.2,3.1-0.5,4c-0.7,2.5-3.6,5.6-8.7,5.6c-1.1,0-6.6-0.7-8-0.7c-1.4,0-8.7,0.4-10.2,0.4c-1.8,0-11.1-0.4-13.4-0.4
	c-1.8,0-10.9,0.7-13,0.7c-4.1,0-10.5-2.5-10.5-11.2c0-2,0.2-4,0.5-6.1c0-2.7,0-5.2,0.2-7.9c0.2-3.8,0.9-7.4,1.1-11.2
	c0.2-1.8,0.2-3.6,0.2-5.6c0-2.5-0.5-14.6-0.5-17.6c0-2.2-0.2-14.2-0.2-16.9c0-4.3,0.7-25.7,1.1-32.4c0.2-4.7,0.7-9.4,0.7-14.2
	c0-5.4-0.2-6.5-1.6-14.4c-0.5-3.1-0.7-6.1-0.7-8.6c0-5.2,2.3-9.7,2.5-10.1c2.3-3.1,5-3.4,11.6-3.4h4.3c0.9,0,1.8,0.2,2.5,0.2h1.8
	c4.3,0,14.6,0,18.4-0.2c3-0.2,5.9-0.4,8.7-0.4c5.7,0,9.6,0.4,14.1,6.1c0.5,0.4,4.8,7,8.2,13c1.1,2,2.3,3.8,3.6,5.6
	c3,3.6,3.2,4,5.2,7.9c0.9,2,1.8,4,3.2,5.8c0.9,0.9,1.8,2,2.5,3.1c0.9,1.1,1.6,2.2,2.3,3.4c3.4,4.5,4.3,5.9,7.3,5.9
	c1.1,0,3.2-0.9,3.2-3.8c0-0.2-0.5-8.1-0.5-9.7v-10.3c0-2.5,0-5-0.2-7.7c0-1.1-0.5-6.5-0.5-7.9c0-1.8,0.2-4.3,3-7.2
	c2.7-3.4,5.4-4,11.2-4c1.6,0,9.3,0.2,9.6,0.2c0.2,0,6.8,0.4,7,0.4c4.5,0,9.3-0.7,13.9-0.7c5.2,0,10.5,1.3,11.6,1.8
	c6.8,2.9,6.8,11,6.8,13.3c0,0-0.2,8.8-0.2,9.7c-0.2,2-1.1,11-1.1,13.3c0,2.5,0.5,14.6,0.5,17.3c0,5.6,0,10.1-0.5,14.8
	c-0.5,7.9-0.7,8.6-0.7,10.8c0,3.1,1.4,19.1,1.4,22.7c0,2.5-0.1,10.2-0.1,17.6c0.4-1.6,0.8-3.3,1.3-5.2c0.5-2.5,1.1-4.7,2.1-7
	c1.4-4.5,3.2-8.6,4.3-13c1.6-6.3,2.3-13,4.1-19.3c1.6-5,3.6-9.9,5.4-14.8c0.5-1.6,1.1-3.4,1.6-5.2c0.5-2.7,1.1-5.4,1.8-8.1
	c0.7-2.2,6.8-18,7.3-19.3c0.9-2.5,1.4-5.2,2.1-7.9c0.9-2.5,1.8-5.2,2.7-7.9c1.4-3.6,2.5-7.2,6.1-9.7c4.8-3.1,8.7-3.1,12.5-3.1
	c2.3,0,13.9,0.4,16.4,0.4c3.2,0,11.6-0.2,14.6-0.4c0.5,0,5.9-0.4,6.4-0.4c2.1,0,12.5,0.9,14.8,0.9c1.1,0,6.4-0.2,7.5-0.2
	c3.2,0,9.3,0.9,11.4,2c1.8,1.1,5,4.5,6.4,6.8c0.9,1.8,3.6,9.9,4.1,12.8c0.2,1.3,0.7,2.9,1.1,4.3c0.7,2.7,1.1,5.4,1.8,7.9
	c0.9,3.1,3,9.9,4.8,14.6c2.5,6.5,2.7,7.4,3.9,15.5c0.7,5.8,1.4,7.9,4.3,18c0.9,3.6,1.8,7.4,3,11c0.7,2.5,1.4,4.7,2.1,6.8
	c0.9,2,1.8,4,2.3,6.1c0.7,2.2,1.8,5.4,2.5,7.7c0.7,2.5,1.1,5.2,1.8,7.9c0.5,2,1.4,4.3,1.8,6.3c0.2,0.7,1.6,4,1.8,4.7
	C412.3,544.7,414.8,553.7,414.8,553.9z M339.5,497c0-0.9-0.2-1.8-0.5-2.7c-0.5-2-0.9-4-1.4-5.9c-0.5-2.5-0.9-4.7-1.4-7.2
	c-0.5-1.6-1.1-2.9-1.6-4.5c-0.9-2.5-1.4-4.7-2.3-7.2c-0.5-1.6-1.1-3.8-4.3-3.8c-2.3,0-3.6,1.1-5.4,5.8c-1.1,2.7-1.4,3.4-3,10.6
	c-0.5,2-3.4,11.5-3.4,13.7c0,3.1,1.6,4.7,4.1,5.4c1.4,0.2,1.8,0.2,7.5,0.2c0.7,0,4.5,0.2,5.4,0.2C337.6,501.7,339.5,500.2,339.5,497
	z M550.5,411.8c0,0-3-0.7-4.1-0.7c-1.1,0-3.9,0.7-5.7,1.1c-1.4,0.2-3,0.2-4.3,0.2c-1.8,0-6.1-0.2-9.1-0.4c-3-0.2-5.7-0.7-8.7-0.7
	c-0.7,0-2.3,0-3.9,0.2c-1.6,0-3.2,0.2-3.9,0.2c-0.5,0-1.8-0.2-3-0.2c-1.4-0.2-2.7-0.2-3.2-0.2c-3,0-7.7,1.6-9.8,2.9
	c-1.8,1.1-3.2,2.9-4.3,4.7c-0.9,1.8-1.6,3.6-2.5,5.2c-0.9,2-2.5,5.2-3.4,6.1c-1.4,2.2-3,4-4.3,6.1c-1.4,2-2.5,3.8-3.6,5.9
	c-2.1,3.4-7.7,12.6-10.5,12.6c-1.8,0-3.4-2.7-4.5-4.7c-1.1-2.5-2.3-4.9-3.6-7.7c-0.7-1.6-3.6-7.4-5.7-11c-0.7-1.6-1.6-3.1-2.1-4.5
	c-1.1-2.9-1.4-6.1-2.7-9c-2.1-4.5-4.5-6.8-11.4-6.8H429c-0.9,0.2-4.1,0.7-5,0.7h-6.1c-0.5,0.2-1.1,0.2-1.4,0.2
	c-0.7,0-2.5-0.2-4.1-0.4c-1.8,0-3.4-0.2-4.1-0.2c-0.7,0-2.7,0-4.5,0.2c-1.8,0-3.6,0.2-4.3,0.2c-2.1,0-3.9-0.2-6.6-0.7
	c-0.9-0.2-2.1-0.4-3-0.4c-3.4,0-6.8,2.7-6.8,7c0,2.2,0.7,4.5,1.4,5.9c1.1,2.5,2.7,4.7,4.1,7.2c3.6,6.1,5.5,10.1,7.7,15.3
	c1.1,2.5,10.3,20.7,10.7,21.4c2.1,3.4,4.6,6.5,6.6,10.1c0.9,1.8,1.8,3.8,3,5.8c1.4,2,3,4,4.1,6.3c2.1,3.1,3.2,6.5,4.8,9.7
	c1.1,2.2,2.5,4.3,3.6,6.5c2.3,4.3,5.9,15.3,5.9,15.7c0.2,1.1,0.9,7,0.9,9.4v13.7c0,3.1-0.2,6.3-0.9,9.4c-0.5,2.2-1.4,6.8-1.4,7
	c0,4,3.9,8.6,7.5,9.4c1.1,0.2,2.3,0.2,3.6,0.2c2.1,0,10-0.4,11.8-0.4c1.6,0,8.7,0.7,10,0.7c1.6,0,9.1-0.4,10.7-0.4
	c0.9,0,3.4,0.2,5.7,0.4c2.5,0.2,5,0.4,5.7,0.4c7.3,0,8.9-3.4,9.8-5.8c0.5-1.3,1.4-4.7,1.4-6.1c0-0.7-1.4-8.8-1.6-10.1
	c0-1.3-0.2-2.7-0.2-4.3c0-2.2,0.2-10.3,0.2-13c0-1.8,0.5-12.1,1.4-16.2c1.6-5.9,3-8.1,3.9-9.9c0.7-1.1,3.4-6.1,4.1-8.1
	c0.7-1.8,0.9-2.2,2.7-4.5c1.6-2.2,3.9-5.6,5.4-7.7c2.7-3.8,5-8.1,7.5-11.9c1.4-2,3-3.8,4.3-5.9c6.6-9.9,7.7-11.7,9.8-16
	c1.1-2.5,2.3-4.9,3.4-7.4c0.9-1.8,2.1-3.4,3.2-4.9c1.1-1.3,2.5-2.7,3.2-4c0.9-1.6,1.4-3.1,2.1-4.7c0.9-1.8,2.1-3.4,3-5.2
	c1.1-2,1.8-4.5,1.8-7C553.9,414.7,552.1,412.4,550.5,411.8z M172.1,323.7c9.1-9,13.6-20.7,13.6-32.5c0-11.7-4.5-23.5-13.6-32.5
	c-9.1-9-21-13.5-32.8-13.5s-23.8,4.5-32.9,13.5c-9.1,9-13.6,20.7-13.6,32.5v110.6l112.1,0.2c11.9,0,23.8-4.5,32.8-13.4
	c9.1-9,13.6-20.7,13.6-32.5c0-11.7-4.5-23.5-13.6-32.5c-9.1-9-21-13.4-32.8-13.4C193.1,310.2,181.2,314.7,172.1,323.7z"/>
</svg>
